<?xml version="1.0" encoding="utf-8"?>
<svg version="1.1" id="Capa_1" x="0px" y="0px" viewBox="0 0 288.861 288.861" style="enable-background:new 0 0 288.861 288.861;" xmlns="http://www.w3.org/2000/svg">
  <g>
    <path d="M 167.172 257.293 L 105.012 257.293 L 105.012 153.514 L 70.769 153.514 L 70.769 105.852 L 105.011 105.852 L 105.011 79.088 C 105.011 54.518 124.195 25.829 178.284 25.829 C 197.352 25.829 211.35 27.261 211.935 27.322 L 217.674 27.92 L 216.292 72.523 L 209.968 72.476 C 209.955 72.476 195.745 72.368 180.244 72.368 C 168.708 72.368 167.178 74.65 167.178 83.723 L 167.178 105.863 L 218.091 105.863 L 215.27 153.523 L 167.184 153.523 L 167.184 257.293 L 167.172 257.293 Z M 117.858 246.993 L 154.311 246.993 L 154.311 143.219 L 202.988 143.219 L 204.595 116.152 L 154.311 116.152 L 154.311 83.713 C 154.311 73.001 157.389 62.058 180.23 62.058 C 189.408 62.058 198.129 62.094 203.739 62.13 L 204.517 37.056 C 198.842 36.648 189.401 36.128 178.27 36.128 C 133.726 36.128 117.851 58.319 117.851 79.088 L 117.851 116.152 L 83.61 116.152 L 83.61 143.219 L 117.852 143.219 L 117.852 246.993 L 117.858 246.993 Z" style="fill: rgb(255, 255, 255);"/>
  </g>
  <g/>
  <g/>
  <g/>
  <g/>
  <g/>
  <g/>
  <g/>
  <g/>
  <g/>
  <g/>
  <g/>
  <g/>
  <g/>
  <g/>
  <g/>
</svg>